<svg width="129" height="40" viewBox="0 0 129 40" fill="none" xmlns="http://www.w3.org/2000/svg">
<path d="M19.9507 0.147461C9.18477 0.147461 0 8.87881 0 19.6389C0 25.0219 2.17993 29.8992 5.71432 33.4277C9.24291 36.9563 14.5736 39.1362 19.9507 39.1362H20.5262C26.5138 39.1362 30.2051 36.0902 32.2804 33.8114V31.9744H19.9507C16.5442 31.9744 13.4633 30.5967 11.2368 28.3645C9.00457 26.1322 7.62685 23.0513 7.62685 19.6448C7.62685 12.8376 13.1435 7.32088 19.9507 7.32088C26.7579 7.32088 32.2804 12.8376 32.2804 19.6448V38.4038H39.9015V19.6448C39.9015 8.87881 30.7225 0.153275 19.9507 0.153275V0.147461Z" fill="url(#paint0_linear_2120_9786)"/>
<path d="M64.2769 0.147461C53.5109 0.147461 44.3262 8.87881 44.3262 19.6389C44.3262 25.0219 46.5061 29.8992 50.0405 33.4277C53.5691 36.9563 58.8997 39.1362 64.2769 39.1362H64.8524C70.8399 39.1362 74.5313 36.0902 76.6066 33.8114V31.9744H64.2769C60.8704 31.9744 57.7894 30.5967 55.563 28.3645C53.3307 26.1322 51.953 23.0513 51.953 19.6448C51.953 12.8376 57.4697 7.32088 64.2769 7.32088C71.0841 7.32088 76.6066 12.8376 76.6066 19.6448V38.4038H84.2276V19.6448C84.2276 8.87881 75.0487 0.153275 64.2769 0.153275V0.147461Z" fill="url(#paint1_linear_2120_9786)"/>
<path d="M108.666 0.147461C97.8996 0.147461 88.7148 8.87881 88.7148 19.6389C88.7148 25.0219 90.8948 29.8992 94.4292 33.4277C97.9578 36.9563 103.288 39.1362 108.666 39.1362H109.241C115.229 39.1362 118.92 36.0902 120.995 33.8114V31.9744H108.666C105.259 31.9744 102.178 30.5967 99.9517 28.3645C97.7194 26.1322 96.3417 23.0513 96.3417 19.6448C96.3417 12.8376 101.858 7.32088 108.666 7.32088C115.473 7.32088 120.995 12.8376 120.995 19.6448V38.4038H128.616V19.6448C128.616 8.87881 119.437 0.153275 108.666 0.153275V0.147461Z" fill="url(#paint2_linear_2120_9786)"/>
<defs>
<linearGradient id="paint0_linear_2120_9786" x1="-0.261592" y1="28.1726" x2="122.018" y2="-9.75815" gradientUnits="userSpaceOnUse">
<stop stop-color="#29F2BC"/>
<stop offset="0.5" stop-color="#4877FF"/>
<stop offset="1" stop-color="#F945B3"/>
</linearGradient>
<linearGradient id="paint1_linear_2120_9786" x1="3.63413" y1="40.7116" x2="125.908" y2="2.78661" gradientUnits="userSpaceOnUse">
<stop stop-color="#29F2BC"/>
<stop offset="0.5" stop-color="#4877FF"/>
<stop offset="1" stop-color="#F945B3"/>
</linearGradient>
<linearGradient id="paint2_linear_2120_9786" x1="7.52841" y1="53.2738" x2="129.808" y2="15.343" gradientUnits="userSpaceOnUse">
<stop stop-color="#29F2BC"/>
<stop offset="0.5" stop-color="#4877FF"/>
<stop offset="1" stop-color="#F945B3"/>
</linearGradient>
</defs>
</svg>
